<svg id="svg" version="1.1" xmlns="http://www.w3.org/2000/svg" xmlns:xlink="http://www.w3.org/1999/xlink" width="400" height="400" viewBox="0, 0, 400,400"><g id="svgg"><path id="path0" d="M204.400 13.076 C 204.400 13.422,204.019 14.037,203.553 14.441 C 203.063 14.865,202.804 15.435,202.940 15.788 C 203.069 16.125,202.988 16.400,202.759 16.400 C 202.208 16.400,201.200 17.427,201.200 17.988 C 201.200 18.233,200.840 18.820,200.400 19.292 C 199.960 19.764,199.600 20.387,199.600 20.675 C 199.600 20.964,199.420 21.200,199.200 21.200 C 198.980 21.200,198.800 21.560,198.800 22.000 C 198.800 22.440,198.599 22.800,198.353 22.800 C 198.104 22.800,197.999 23.153,198.116 23.600 C 198.231 24.040,198.154 24.400,197.944 24.400 C 197.230 24.400,195.527 26.433,195.751 27.018 C 195.885 27.365,195.737 27.600,195.387 27.600 C 195.064 27.600,194.800 27.878,194.800 28.217 C 194.800 28.556,194.428 29.231,193.974 29.717 C 193.474 30.252,193.215 30.955,193.319 31.500 C 193.412 31.995,193.321 32.400,193.116 32.400 C 192.526 32.400,191.600 33.482,191.600 34.171 C 191.600 34.517,191.399 34.800,191.153 34.800 C 190.904 34.800,190.799 35.153,190.916 35.600 C 191.031 36.040,190.949 36.400,190.734 36.400 C 190.228 36.400,189.200 37.428,189.200 37.934 C 189.200 38.667,187.402 41.776,186.300 42.949 C 185.695 43.592,185.200 44.362,185.200 44.659 C 185.200 44.957,185.020 45.200,184.800 45.200 C 184.580 45.200,184.400 45.480,184.400 45.822 C 184.400 46.164,183.303 47.521,181.963 48.837 C 180.430 50.341,179.609 51.446,179.750 51.814 C 179.885 52.165,179.739 52.400,179.387 52.400 C 178.901 52.400,178.800 51.506,178.800 47.200 C 178.800 44.000,178.954 42.000,179.200 42.000 C 179.987 42.000,179.659 37.815,178.800 36.892 C 178.360 36.420,178.000 35.576,178.000 35.017 C 178.000 34.458,177.820 34.000,177.600 34.000 C 177.380 34.000,177.200 33.640,177.200 33.200 C 177.200 32.760,177.020 32.400,176.800 32.400 C 176.580 32.400,176.400 31.860,176.400 31.200 C 176.400 30.540,176.220 30.000,176.000 30.000 C 175.780 30.000,175.600 29.021,175.600 27.824 C 175.600 26.627,175.420 25.536,175.200 25.400 C 174.980 25.264,174.800 24.811,174.800 24.392 C 174.800 23.801,174.543 23.651,173.639 23.716 C 173.000 23.762,172.561 23.935,172.663 24.100 C 172.764 24.265,172.567 24.400,172.224 24.400 C 171.763 24.400,171.600 24.818,171.600 26.000 C 171.600 26.880,171.420 27.600,171.200 27.600 C 170.980 27.600,170.800 28.320,170.800 29.200 C 170.800 30.080,170.620 30.800,170.400 30.800 C 170.180 30.800,170.000 31.520,170.000 32.400 C 170.000 33.280,169.820 34.000,169.600 34.000 C 169.380 34.000,169.200 34.349,169.200 34.776 C 169.200 35.203,169.020 35.664,168.800 35.800 C 168.580 35.936,168.400 36.487,168.400 37.024 C 168.400 37.561,168.220 38.000,168.000 38.000 C 167.780 38.000,167.600 38.900,167.600 40.000 C 167.600 41.119,167.783 42.000,168.016 42.000 C 168.295 42.000,168.394 44.588,168.316 49.800 C 168.249 54.346,168.353 57.601,168.567 57.600 C 168.768 57.600,168.814 57.719,168.669 57.864 C 168.343 58.190,166.798 56.841,166.806 56.238 C 166.809 55.997,166.987 56.070,167.200 56.400 C 167.531 56.913,167.589 56.898,167.594 56.300 C 167.597 55.915,167.420 55.600,167.200 55.600 C 166.980 55.600,166.800 55.364,166.800 55.075 C 166.800 54.787,166.440 54.164,166.000 53.692 C 165.560 53.220,165.200 52.596,165.200 52.305 C 165.200 52.014,164.840 51.517,164.400 51.200 C 163.960 50.883,163.600 50.310,163.600 49.928 C 163.600 49.408,163.307 49.253,162.439 49.316 C 161.800 49.362,161.361 49.535,161.463 49.700 C 161.564 49.865,161.367 50.000,161.024 50.000 C 160.681 50.000,160.400 50.272,160.400 50.604 C 160.400 50.936,159.860 51.772,159.200 52.463 C 158.540 53.154,158.000 53.962,158.000 54.259 C 158.000 54.557,157.820 54.800,157.600 54.800 C 157.380 54.800,157.200 55.116,157.200 55.501 C 157.200 55.887,156.660 56.712,156.000 57.335 C 155.311 57.986,154.800 58.879,154.800 59.434 C 154.800 59.965,154.650 60.400,154.468 60.400 C 154.285 60.400,153.880 60.894,153.568 61.497 C 153.255 62.100,152.409 63.192,151.688 63.923 C 150.966 64.653,150.068 65.960,149.693 66.826 C 149.318 67.692,148.874 68.400,148.706 68.400 C 148.538 68.400,148.400 68.694,148.400 69.053 C 148.400 69.412,148.019 70.037,147.553 70.441 C 147.063 70.865,146.804 71.435,146.940 71.788 C 147.077 72.144,146.957 72.400,146.655 72.400 C 146.369 72.400,145.880 72.895,145.568 73.500 C 145.255 74.105,144.685 74.949,144.300 75.375 C 143.915 75.802,143.600 76.347,143.600 76.587 C 143.600 76.827,143.240 77.283,142.800 77.600 C 142.360 77.917,142.000 78.497,142.000 78.888 C 142.000 79.280,141.820 79.600,141.600 79.600 C 141.380 79.600,141.200 79.240,141.200 78.800 C 141.200 78.360,141.020 78.000,140.800 78.000 C 140.580 78.000,140.400 77.680,140.400 77.288 C 140.400 76.897,140.040 76.317,139.600 76.000 C 139.160 75.683,138.800 75.185,138.800 74.894 C 138.800 74.602,138.358 73.922,137.818 73.382 C 136.645 72.209,134.800 72.044,134.800 73.112 C 134.800 73.503,134.440 74.083,134.000 74.400 C 133.560 74.717,133.200 75.257,133.200 75.600 C 133.200 75.943,132.840 76.483,132.400 76.800 C 131.960 77.117,131.600 77.697,131.600 78.088 C 131.600 78.480,131.420 78.800,131.200 78.800 C 130.980 78.800,130.800 79.160,130.800 79.600 C 130.800 80.040,130.620 80.400,130.400 80.400 C 130.180 80.400,130.000 80.688,130.000 81.040 C 130.000 81.391,129.505 82.156,128.900 82.740 C 128.295 83.323,127.545 84.295,127.232 84.900 C 126.920 85.505,126.515 86.000,126.332 86.000 C 126.150 86.000,126.000 86.360,126.000 86.800 C 126.000 87.240,125.820 87.600,125.600 87.600 C 125.380 87.600,125.200 87.960,125.200 88.400 C 125.200 88.840,125.020 89.200,124.800 89.200 C 124.580 89.200,124.400 89.472,124.400 89.804 C 124.400 90.136,123.860 90.972,123.200 91.663 C 122.540 92.354,122.000 93.079,122.000 93.276 C 122.000 93.473,121.640 94.020,121.200 94.492 C 120.760 94.964,120.400 95.587,120.400 95.875 C 120.400 96.164,120.222 96.400,120.005 96.400 C 119.787 96.400,119.652 96.785,119.705 97.256 C 119.757 97.727,119.530 98.206,119.200 98.321 C 118.685 98.500,118.678 98.435,119.149 97.865 C 119.631 97.281,119.594 97.200,118.849 97.200 C 118.172 97.200,118.000 96.956,118.000 96.000 C 118.000 95.340,117.820 94.800,117.600 94.800 C 117.380 94.800,117.200 93.900,117.200 92.800 C 117.200 91.700,117.020 90.800,116.800 90.800 C 116.580 90.800,116.400 90.099,116.400 89.243 C 116.400 88.265,116.188 87.604,115.831 87.467 C 115.488 87.336,115.346 86.929,115.473 86.442 C 115.619 85.886,115.329 85.321,114.542 84.630 C 113.025 83.296,112.235 83.287,112.566 84.609 C 112.744 85.316,112.637 85.688,112.210 85.852 C 111.874 85.980,111.600 86.416,111.600 86.819 C 111.600 87.223,111.420 87.664,111.200 87.800 C 110.980 87.936,110.800 88.361,110.800 88.744 C 110.800 89.619,109.901 91.593,109.500 91.597 C 109.335 91.599,109.200 92.320,109.200 93.200 C 109.200 94.080,109.097 94.800,108.971 94.800 C 108.570 94.800,107.600 93.673,107.600 93.206 C 107.600 92.959,106.520 91.696,105.200 90.400 C 103.880 89.104,102.800 87.804,102.800 87.510 C 102.800 87.217,102.440 86.717,102.000 86.400 C 101.560 86.083,101.200 85.589,101.200 85.303 C 101.200 84.575,96.950 80.400,96.209 80.400 C 95.476 80.400,95.397 79.739,96.100 79.487 C 96.447 79.363,96.346 79.077,95.772 78.554 C 94.510 77.405,94.335 76.575,95.339 76.500 C 96.016 76.448,96.069 76.512,95.595 76.812 C 95.183 77.072,95.707 77.190,97.300 77.194 C 98.565 77.197,99.600 77.380,99.600 77.600 C 99.600 77.837,101.067 78.000,103.200 78.000 L 106.800 78.000 106.800 76.800 C 106.800 76.140,106.620 75.600,106.400 75.600 C 106.180 75.600,105.999 75.375,105.998 75.100 C 105.997 74.825,105.457 74.025,104.798 73.322 C 104.139 72.619,103.600 71.830,103.600 71.569 C 103.600 71.307,103.284 70.803,102.897 70.447 C 102.511 70.091,101.940 69.305,101.630 68.700 C 101.319 68.095,100.915 67.600,100.732 67.600 C 100.550 67.600,100.400 67.194,100.400 66.698 C 100.400 66.195,99.692 65.044,98.800 64.097 C 97.920 63.163,97.200 62.201,97.200 61.960 C 97.200 61.718,96.660 61.017,96.000 60.400 C 95.340 59.783,94.800 59.031,94.800 58.728 C 94.800 58.425,94.440 57.917,94.000 57.600 C 93.560 57.283,93.200 56.624,93.200 56.135 C 93.200 55.647,93.020 55.136,92.800 55.000 C 92.580 54.864,92.400 54.487,92.400 54.163 C 92.400 53.174,89.727 50.800,88.613 50.800 C 87.977 50.800,87.600 51.024,87.600 51.404 C 87.600 51.736,87.060 52.572,86.400 53.263 C 85.740 53.954,85.200 54.762,85.200 55.059 C 85.200 55.357,85.020 55.600,84.800 55.600 C 84.580 55.600,84.400 55.869,84.400 56.198 C 84.400 56.527,83.500 57.715,82.400 58.839 C 81.237 60.026,80.400 61.246,80.400 61.752 C 80.400 62.231,80.040 62.883,79.600 63.200 C 79.160 63.517,78.800 64.009,78.800 64.292 C 78.800 64.575,78.260 65.372,77.600 66.063 C 76.940 66.754,76.400 67.562,76.400 67.859 C 76.400 68.157,76.220 68.400,76.000 68.400 C 75.780 68.400,75.600 68.678,75.600 69.017 C 75.600 69.356,75.240 70.020,74.800 70.492 C 74.360 70.964,74.000 71.765,74.000 72.272 C 74.000 72.779,73.640 73.418,73.200 73.693 C 72.760 73.968,72.400 74.469,72.400 74.808 C 72.400 75.146,72.040 75.683,71.600 76.000 C 69.733 77.345,70.542 78.800,73.157 78.800 C 74.777 78.800,75.580 78.630,75.723 78.255 C 75.877 77.854,76.494 77.763,78.066 77.907 C 80.672 78.146,80.747 78.205,79.664 79.144 C 79.189 79.557,78.800 80.098,78.800 80.346 C 78.800 80.595,78.080 81.541,77.200 82.448 C 76.320 83.355,75.600 84.262,75.600 84.465 C 75.600 84.668,75.240 85.220,74.800 85.692 C 74.360 86.164,74.000 86.885,74.000 87.293 C 74.000 87.701,72.920 89.128,71.600 90.464 C 70.280 91.801,69.200 93.143,69.200 93.447 C 69.200 93.751,69.020 94.000,68.800 94.000 C 68.580 94.000,68.400 94.720,68.400 95.600 L 68.400 97.200 72.800 97.200 C 77.282 97.200,77.817 97.378,76.400 98.400 C 75.960 98.717,75.600 99.257,75.600 99.600 C 75.600 99.943,75.240 100.483,74.800 100.800 C 74.360 101.117,74.000 101.695,74.000 102.085 C 74.000 102.474,73.640 103.018,73.200 103.293 C 72.760 103.568,72.400 104.031,72.400 104.322 C 72.400 104.614,71.500 105.729,70.400 106.800 C 69.300 107.871,68.400 108.990,68.400 109.286 C 68.400 109.581,68.040 110.083,67.600 110.400 C 67.160 110.717,66.800 111.207,66.800 111.488 C 66.800 111.769,66.080 112.741,65.200 113.648 C 64.320 114.555,63.600 115.545,63.600 115.848 C 63.600 116.152,63.420 116.400,63.200 116.400 C 62.980 116.400,62.800 117.113,62.800 117.983 L 62.800 119.567 67.100 119.555 C 80.379 119.520,80.629 119.536,80.629 120.400 C 80.629 120.840,80.397 121.200,80.114 121.200 C 79.831 121.200,79.600 121.498,79.600 121.863 C 79.600 122.227,78.340 123.741,76.800 125.227 C 75.260 126.713,74.000 128.138,74.000 128.393 C 74.000 128.979,72.997 130.000,72.422 130.000 C 71.658 130.000,65.923 136.021,66.142 136.593 C 66.256 136.891,66.077 137.238,65.744 137.366 C 65.053 137.631,65.085 140.397,65.785 140.894 C 66.013 141.056,65.794 141.191,65.298 141.194 L 64.396 141.200 64.450 151.300 C 64.488 158.227,64.645 161.504,64.952 161.730 C 65.276 161.969,65.262 162.117,64.900 162.264 C 64.561 162.401,64.420 163.325,64.463 165.133 L 64.526 167.800 64.800 165.800 C 65.049 163.984,65.217 167.092,65.378 176.500 C 65.394 177.421,65.235 177.764,64.832 177.677 C 64.342 177.572,64.342 177.649,64.832 178.242 C 65.271 178.774,65.286 178.968,64.900 179.098 C 64.612 179.195,64.400 179.941,64.400 180.857 C 64.400 181.815,64.559 182.349,64.800 182.200 C 65.020 182.064,65.200 182.233,65.200 182.576 C 65.200 182.919,65.020 183.200,64.800 183.200 C 64.542 183.200,64.400 187.541,64.400 195.424 C 64.400 203.471,64.537 207.563,64.800 207.400 C 65.042 207.250,65.200 207.804,65.200 208.800 C 65.200 209.796,65.042 210.350,64.800 210.200 C 64.541 210.040,64.400 211.851,64.400 215.343 C 64.400 219.264,64.536 220.797,64.900 220.967 C 65.300 221.153,65.300 221.247,64.900 221.433 C 64.589 221.578,64.400 222.496,64.400 223.857 C 64.400 225.215,64.552 225.953,64.800 225.800 C 65.020 225.664,65.200 225.934,65.200 226.400 C 65.200 226.866,65.020 227.136,64.800 227.000 C 64.580 226.864,64.400 226.900,64.400 227.080 C 64.400 227.633,62.796 228.445,62.304 228.141 C 61.683 227.757,57.228 227.719,57.462 228.100 C 57.793 228.637,56.221 228.390,55.411 227.778 C 54.706 227.245,54.633 226.772,54.734 223.391 L 54.847 219.600 50.423 219.600 C 47.991 219.600,46.000 219.751,46.000 219.937 C 46.000 220.122,45.145 220.132,44.100 219.960 C 43.055 219.788,41.075 219.637,39.700 219.624 L 37.200 219.600 37.200 222.000 L 37.200 224.400 34.004 224.400 C 30.866 224.400,30.810 224.417,30.889 225.371 C 30.934 225.905,31.112 226.255,31.285 226.148 C 31.458 226.040,31.600 226.874,31.600 228.000 C 31.600 229.263,31.447 229.953,31.200 229.800 C 30.972 229.659,30.800 230.008,30.800 230.613 L 30.800 231.673 34.950 231.536 C 38.149 231.431,39.055 231.515,38.907 231.900 C 38.801 232.175,38.362 232.400,37.930 232.400 C 37.328 232.400,37.205 232.586,37.400 233.200 C 37.628 233.919,37.472 234.000,35.860 234.000 C 34.873 234.000,33.804 234.100,33.484 234.223 C 33.165 234.346,32.623 234.166,32.280 233.823 C 31.491 233.034,30.800 233.023,30.800 233.800 C 30.800 234.130,30.980 234.400,31.200 234.400 C 31.721 234.400,31.730 240.672,31.209 240.994 C 30.995 241.127,30.838 242.353,30.861 243.718 C 30.890 245.394,31.007 245.940,31.223 245.400 C 31.426 244.895,31.554 245.806,31.572 247.867 C 31.591 250.127,31.446 251.196,31.100 251.336 C 30.724 251.489,30.748 251.644,31.200 251.963 C 31.530 252.197,31.613 252.391,31.385 252.394 C 31.157 252.397,30.945 252.738,30.914 253.152 C 30.851 253.986,36.122 254.374,36.618 253.571 C 36.967 253.006,37.601 253.532,37.352 254.181 C 37.214 254.540,37.468 254.783,38.069 254.868 C 38.732 254.962,38.972 255.231,38.902 255.800 C 38.685 257.571,39.275 260.400,39.861 260.400 C 40.183 260.400,40.336 260.580,40.200 260.800 C 40.043 261.055,41.196 261.200,43.376 261.200 C 45.392 261.200,46.800 261.364,46.800 261.600 C 46.800 261.855,50.000 262.000,55.600 262.000 L 64.400 262.000 64.400 264.624 C 64.400 266.480,64.533 267.165,64.854 266.966 C 65.341 266.666,65.146 270.094,64.570 271.963 C 64.360 272.646,64.408 272.842,64.737 272.639 C 65.012 272.469,65.200 272.606,65.200 272.976 C 65.200 273.319,65.007 273.600,64.772 273.600 C 63.753 273.600,64.621 275.402,65.700 275.527 C 66.305 275.596,66.800 275.821,66.800 276.027 C 66.800 276.232,67.160 276.400,67.600 276.400 C 68.040 276.400,68.400 276.580,68.400 276.800 C 68.400 277.020,68.760 277.200,69.200 277.200 C 69.640 277.200,70.000 277.380,70.000 277.600 C 70.000 277.820,70.360 278.000,70.800 278.000 C 71.240 278.000,71.600 278.180,71.600 278.400 C 71.600 278.620,71.920 278.800,72.312 278.800 C 72.703 278.800,73.283 279.160,73.600 279.600 C 73.917 280.040,74.497 280.400,74.888 280.400 C 75.280 280.400,75.600 280.580,75.600 280.800 C 75.600 281.020,75.960 281.200,76.400 281.200 C 76.840 281.200,77.200 281.401,77.200 281.647 C 77.200 281.896,77.553 282.001,78.000 281.884 C 78.520 281.748,78.800 281.872,78.800 282.237 C 78.800 282.547,79.160 282.800,79.600 282.800 C 80.040 282.800,80.400 282.980,80.400 283.200 C 80.400 283.420,80.760 283.600,81.200 283.600 C 81.640 283.600,82.000 283.780,82.000 284.000 C 82.000 284.220,82.278 284.400,82.617 284.400 C 82.956 284.400,83.620 284.760,84.092 285.200 C 84.564 285.640,85.187 286.000,85.475 286.000 C 85.764 286.000,86.000 286.180,86.000 286.400 C 86.000 286.620,86.360 286.800,86.800 286.800 C 87.240 286.800,87.600 286.980,87.600 287.200 C 87.600 287.420,87.960 287.600,88.400 287.600 C 88.840 287.600,89.200 287.780,89.200 288.000 C 89.200 288.220,89.560 288.400,90.000 288.400 C 90.440 288.400,90.800 288.580,90.800 288.800 C 90.800 289.020,91.160 289.200,91.600 289.200 C 92.040 289.200,92.400 289.352,92.400 289.537 C 92.400 289.723,93.255 290.308,94.300 290.837 C 95.345 291.367,96.260 291.935,96.333 292.100 C 96.407 292.265,96.992 292.400,97.633 292.400 C 98.275 292.400,98.800 292.580,98.800 292.800 C 98.800 293.020,99.160 293.200,99.600 293.200 C 100.040 293.200,100.400 293.380,100.400 293.600 C 100.400 293.820,100.760 294.000,101.200 294.000 C 101.640 294.000,102.000 294.180,102.000 294.400 C 102.000 294.620,102.360 294.800,102.800 294.800 C 103.240 294.800,103.600 294.980,103.600 295.200 C 103.600 295.420,103.960 295.600,104.400 295.600 C 104.840 295.600,105.200 295.780,105.200 296.000 C 105.200 296.220,105.520 296.400,105.912 296.400 C 106.303 296.400,106.883 296.760,107.200 297.200 C 107.517 297.640,108.097 298.000,108.488 298.000 C 108.880 298.000,109.200 298.180,109.200 298.400 C 109.200 298.620,109.560 298.800,110.000 298.800 C 110.440 298.800,110.800 298.980,110.800 299.200 C 110.800 299.420,111.160 299.600,111.600 299.600 C 112.040 299.600,112.400 299.780,112.400 300.000 C 112.400 300.220,112.760 300.400,113.200 300.400 C 113.640 300.400,114.000 300.601,114.000 300.847 C 114.000 301.096,114.353 301.201,114.800 301.084 C 115.320 300.948,115.600 301.072,115.600 301.437 C 115.600 301.747,115.960 302.000,116.400 302.000 C 116.840 302.000,117.200 302.180,117.200 302.400 C 117.200 302.620,117.560 302.800,118.000 302.800 C 118.440 302.800,118.800 302.980,118.800 303.200 C 118.800 303.420,119.160 303.600,119.600 303.600 C 120.040 303.600,120.400 303.780,120.400 304.000 C 120.400 304.220,120.760 304.400,121.200 304.400 C 121.640 304.400,122.000 304.580,122.000 304.800 C 122.000 305.020,122.360 305.200,122.800 305.200 C 123.240 305.200,123.600 305.401,123.600 305.647 C 123.600 305.896,123.953 306.001,124.400 305.884 C 124.920 305.748,125.200 305.872,125.200 306.237 C 125.200 306.547,125.560 306.800,126.000 306.800 C 126.440 306.800,126.800 306.980,126.800 307.200 C 126.800 307.420,127.160 307.600,127.600 307.600 C 128.040 307.600,128.400 307.780,128.400 308.000 C 128.400 308.220,128.760 308.400,129.200 308.400 C 129.640 308.400,130.000 308.580,130.000 308.800 C 130.000 309.020,130.234 309.200,130.520 309.200 C 131.256 309.200,133.193 310.141,133.197 310.500 C 133.199 310.665,133.560 310.800,134.000 310.800 C 134.440 310.800,134.800 310.980,134.800 311.200 C 134.800 311.420,135.160 311.600,135.600 311.600 C 136.040 311.600,136.400 311.780,136.400 312.000 C 136.400 312.220,136.760 312.400,137.200 312.400 C 137.640 312.400,138.000 312.580,138.000 312.800 C 138.000 313.020,138.360 313.200,138.800 313.200 C 139.240 313.200,139.600 313.380,139.600 313.600 C 139.600 313.820,139.945 314.000,140.367 314.000 C 140.788 314.000,141.193 314.135,141.267 314.300 C 141.434 314.676,143.564 315.975,144.500 316.271 C 144.885 316.393,145.200 316.652,145.200 316.847 C 145.200 317.041,145.560 317.200,146.000 317.200 C 146.440 317.200,146.800 317.380,146.800 317.600 C 146.800 317.820,147.160 318.000,147.600 318.000 C 148.040 318.000,148.400 318.180,148.400 318.400 C 148.400 318.620,148.760 318.800,149.200 318.800 C 149.640 318.800,150.000 318.980,150.000 319.200 C 150.000 319.420,150.360 319.600,150.800 319.600 C 151.240 319.600,151.600 319.780,151.600 320.000 C 151.600 320.220,151.960 320.400,152.400 320.400 C 152.840 320.400,153.200 320.580,153.200 320.800 C 153.200 321.020,153.560 321.200,154.000 321.200 C 154.440 321.200,154.800 321.380,154.800 321.600 C 154.800 321.820,155.078 322.000,155.417 322.000 C 155.756 322.000,156.420 322.360,156.892 322.800 C 157.364 323.240,157.987 323.600,158.275 323.600 C 158.564 323.600,158.800 323.780,158.800 324.000 C 158.800 324.220,159.160 324.400,159.600 324.400 C 160.040 324.400,160.400 324.580,160.400 324.800 C 160.400 325.020,160.760 325.200,161.200 325.200 C 161.640 325.200,162.000 325.380,162.000 325.600 C 162.000 325.820,162.540 326.000,163.200 326.000 C 163.860 326.000,164.400 326.180,164.400 326.400 C 164.400 326.620,164.760 326.800,165.200 326.800 C 165.640 326.800,166.000 326.980,166.000 327.200 C 166.000 327.420,166.360 327.600,166.800 327.600 C 167.240 327.600,167.600 327.780,167.600 328.000 C 167.600 328.220,167.960 328.400,168.400 328.400 C 168.840 328.400,169.200 328.580,169.200 328.800 C 169.200 329.020,169.560 329.200,170.000 329.200 C 170.440 329.200,170.800 329.380,170.800 329.600 C 170.800 329.820,171.160 330.000,171.600 330.000 C 172.040 330.000,172.400 330.180,172.400 330.400 C 172.400 330.620,172.720 330.800,173.112 330.800 C 173.503 330.800,174.083 331.160,174.400 331.600 C 174.717 332.040,175.297 332.400,175.688 332.400 C 176.080 332.400,176.400 332.580,176.400 332.800 C 176.400 333.020,176.760 333.200,177.200 333.200 C 177.640 333.200,178.000 333.380,178.000 333.600 C 178.000 333.820,178.360 334.000,178.800 334.000 C 179.240 334.000,179.600 334.180,179.600 334.400 C 179.600 334.620,179.960 334.800,180.400 334.800 C 180.840 334.800,181.200 335.001,181.200 335.247 C 181.200 335.496,181.553 335.601,182.000 335.484 C 182.520 335.348,182.800 335.472,182.800 335.837 C 182.800 336.147,183.160 336.400,183.600 336.400 C 184.040 336.400,184.400 336.580,184.400 336.800 C 184.400 337.020,184.760 337.200,185.200 337.200 C 185.640 337.200,186.000 337.380,186.000 337.600 C 186.000 337.820,186.360 338.000,186.800 338.000 C 187.240 338.000,187.600 338.180,187.600 338.400 C 187.600 338.620,187.878 338.800,188.217 338.800 C 188.556 338.800,189.220 339.160,189.692 339.600 C 190.164 340.040,190.787 340.400,191.075 340.400 C 191.364 340.400,191.600 340.580,191.600 340.800 C 191.600 341.020,191.960 341.200,192.400 341.200 C 192.840 341.200,193.200 341.401,193.200 341.647 C 193.200 341.896,193.553 342.001,194.000 341.884 C 194.520 341.748,194.800 341.872,194.800 342.237 C 194.800 342.596,195.236 342.800,196.000 342.800 C 196.660 342.800,197.200 342.980,197.200 343.200 C 197.200 343.420,197.560 343.600,198.000 343.600 C 198.440 343.600,198.800 343.780,198.800 344.000 C 198.800 344.220,199.160 344.400,199.600 344.400 C 200.040 344.400,200.400 344.552,200.400 344.737 C 200.400 344.923,201.255 345.508,202.300 346.037 C 203.345 346.567,204.260 347.135,204.333 347.300 C 204.641 347.992,208.644 347.605,209.508 346.800 C 209.980 346.360,210.644 346.000,210.983 346.000 C 211.322 346.000,211.600 345.820,211.600 345.600 C 211.600 345.380,211.836 345.200,212.125 345.200 C 212.413 345.200,213.036 344.840,213.508 344.400 C 213.980 343.960,214.644 343.600,214.983 343.600 C 215.322 343.600,215.600 343.420,215.600 343.200 C 215.600 342.980,216.140 342.800,216.800 342.800 C 217.460 342.800,218.000 342.620,218.000 342.400 C 218.000 342.180,218.360 342.000,218.800 342.000 C 219.240 342.000,219.600 341.820,219.600 341.600 C 219.600 341.380,219.878 341.200,220.217 341.200 C 220.556 341.200,221.220 340.840,221.692 340.400 C 222.164 339.960,222.787 339.600,223.075 339.600 C 223.364 339.600,223.600 339.420,223.600 339.200 C 223.600 338.980,223.878 338.800,224.217 338.800 C 224.556 338.800,225.220 338.440,225.692 338.000 C 226.164 337.560,226.787 337.200,227.075 337.200 C 227.364 337.200,227.600 336.947,227.600 336.637 C 227.600 336.272,227.880 336.148,228.400 336.284 C 228.847 336.401,229.200 336.296,229.200 336.047 C 229.200 335.801,229.560 335.600,230.000 335.600 C 230.440 335.600,230.800 335.420,230.800 335.200 C 230.800 334.980,231.160 334.800,231.600 334.800 C 232.040 334.800,232.400 334.620,232.400 334.400 C 232.400 334.180,232.678 334.000,233.017 334.000 C 233.356 334.000,234.020 333.640,234.492 333.200 C 234.964 332.760,235.587 332.400,235.875 332.400 C 236.164 332.400,236.400 332.147,236.400 331.837 C 236.400 331.472,236.680 331.348,237.200 331.484 C 237.647 331.601,238.000 331.496,238.000 331.247 C 238.000 331.001,238.360 330.800,238.800 330.800 C 239.240 330.800,239.600 330.620,239.600 330.400 C 239.600 330.180,239.960 330.000,240.400 330.000 C 240.840 330.000,241.200 329.820,241.200 329.600 C 241.200 329.380,241.436 329.200,241.725 329.200 C 242.013 329.200,242.636 328.840,243.108 328.400 C 243.580 327.960,244.244 327.600,244.583 327.600 C 244.922 327.600,245.200 327.420,245.200 327.200 C 245.200 326.980,245.560 326.800,246.000 326.800 C 246.440 326.800,246.800 326.620,246.800 326.400 C 246.800 326.180,247.160 326.000,247.600 326.000 C 248.040 326.000,248.400 325.820,248.400 325.600 C 248.400 325.380,248.760 325.200,249.200 325.200 C 249.640 325.200,250.000 324.947,250.000 324.637 C 250.000 324.272,250.280 324.148,250.800 324.284 C 251.247 324.401,251.600 324.296,251.600 324.047 C 251.600 323.801,251.960 323.600,252.400 323.600 C 252.840 323.600,253.200 323.420,253.200 323.200 C 253.200 322.980,253.560 322.800,254.000 322.800 C 254.440 322.800,254.800 322.620,254.800 322.400 C 254.800 322.180,255.036 322.000,255.325 322.000 C 255.613 322.000,256.236 321.640,256.708 321.200 C 257.180 320.760,257.844 320.400,258.183 320.400 C 258.522 320.400,258.800 320.220,258.800 320.000 C 258.800 319.780,259.036 319.600,259.325 319.600 C 259.613 319.600,260.236 319.240,260.708 318.800 C 261.180 318.360,261.844 318.000,262.183 318.000 C 262.522 318.000,262.800 317.820,262.800 317.600 C 262.800 317.380,263.160 317.200,263.600 317.200 C 264.040 317.200,264.400 317.020,264.400 316.800 C 264.400 316.580,264.760 316.400,265.200 316.400 C 265.640 316.400,266.000 316.220,266.000 316.000 C 266.000 315.780,266.360 315.600,266.800 315.600 C 267.240 315.600,267.600 315.420,267.600 315.200 C 267.600 314.980,267.836 314.800,268.125 314.800 C 268.413 314.800,269.036 314.440,269.508 314.000 C 269.980 313.560,270.644 313.200,270.983 313.200 C 271.322 313.200,271.600 312.947,271.600 312.637 C 271.600 312.272,271.880 312.148,272.400 312.284 C 272.847 312.401,273.200 312.296,273.200 312.047 C 273.200 311.801,273.520 311.600,273.912 311.600 C 274.303 311.600,274.883 311.240,275.200 310.800 C 275.517 310.360,276.097 310.000,276.488 310.000 C 276.880 310.000,277.200 309.820,277.200 309.600 C 277.200 309.380,277.740 309.200,278.400 309.200 C 279.060 309.200,279.600 309.020,279.600 308.800 C 279.600 308.580,279.836 308.400,280.125 308.400 C 280.413 308.400,281.036 308.040,281.508 307.600 C 281.980 307.160,282.644 306.800,282.983 306.800 C 283.322 306.800,283.600 306.547,283.600 306.237 C 283.600 305.872,283.880 305.748,284.400 305.884 C 284.847 306.001,285.200 305.896,285.200 305.647 C 285.200 305.401,285.478 305.200,285.817 305.200 C 286.156 305.200,286.820 304.840,287.292 304.400 C 287.764 303.960,288.567 303.600,289.075 303.600 C 289.584 303.600,290.000 303.420,290.000 303.200 C 290.000 302.980,290.320 302.800,290.712 302.800 C 291.103 302.800,291.683 302.440,292.000 302.000 C 292.317 301.560,292.897 301.200,293.288 301.200 C 293.680 301.200,294.000 301.020,294.000 300.800 C 294.000 300.580,294.360 300.400,294.800 300.400 C 295.240 300.400,295.600 300.220,295.600 300.000 C 295.600 299.780,295.960 299.600,296.400 299.600 C 296.840 299.600,297.200 299.420,297.200 299.200 C 297.200 298.980,297.520 298.800,297.912 298.800 C 298.303 298.800,298.883 298.440,299.200 298.000 C 299.517 297.560,300.097 297.200,300.488 297.200 C 300.880 297.200,301.200 296.947,301.200 296.637 C 301.200 296.272,301.480 296.148,302.000 296.284 C 302.447 296.401,302.800 296.296,302.800 296.047 C 302.800 295.801,303.083 295.600,303.429 295.600 C 304.128 295.600,305.200 294.672,305.200 294.066 C 305.200 293.851,305.560 293.769,306.000 293.884 C 306.447 294.001,306.800 293.896,306.800 293.647 C 306.800 293.401,307.160 293.200,307.600 293.200 C 308.040 293.200,308.400 293.020,308.400 292.800 C 308.400 292.580,308.760 292.400,309.200 292.400 C 309.640 292.400,310.000 292.220,310.000 292.000 C 310.000 291.780,310.360 291.600,310.800 291.600 C 311.240 291.600,311.600 291.420,311.600 291.200 C 311.600 290.980,311.960 290.800,312.400 290.800 C 312.840 290.800,313.200 290.620,313.200 290.400 C 313.200 290.180,313.520 290.000,313.912 290.000 C 314.303 290.000,314.883 289.640,315.200 289.200 C 315.517 288.760,316.097 288.400,316.488 288.400 C 316.880 288.400,317.200 288.147,317.200 287.837 C 317.200 287.472,317.480 287.348,318.000 287.484 C 318.447 287.601,318.800 287.496,318.800 287.247 C 318.800 287.001,319.160 286.800,319.600 286.800 C 320.040 286.800,320.400 286.620,320.400 286.400 C 320.400 286.180,320.760 286.000,321.200 286.000 C 321.640 286.000,322.000 285.820,322.000 285.600 C 322.000 285.380,322.320 285.200,322.712 285.200 C 323.103 285.200,323.683 284.840,324.000 284.400 C 324.317 283.960,324.897 283.600,325.288 283.600 C 325.680 283.600,326.000 283.420,326.000 283.200 C 326.000 282.980,326.360 282.800,326.800 282.800 C 327.240 282.800,327.600 282.620,327.600 282.400 C 327.600 282.180,327.920 282.000,328.312 282.000 C 328.703 282.000,329.283 281.640,329.600 281.200 C 329.917 280.760,330.497 280.400,330.888 280.400 C 331.280 280.400,331.600 280.220,331.600 280.000 C 331.600 279.780,332.016 279.600,332.525 279.600 C 333.033 279.600,333.836 279.240,334.308 278.800 C 334.780 278.360,335.444 278.000,335.783 278.000 C 336.122 278.000,336.400 277.820,336.400 277.600 C 336.400 277.380,336.760 277.200,337.200 277.200 C 337.640 277.200,338.001 277.065,338.003 276.900 C 338.007 276.488,339.992 275.600,340.908 275.600 C 341.739 275.600,342.800 274.705,342.800 274.005 C 342.800 273.756,342.962 273.653,343.160 273.775 C 343.709 274.114,343.732 263.241,343.183 262.580 C 342.128 261.309,343.219 261.200,357.024 261.200 L 370.800 261.200 370.800 258.744 C 370.800 256.879,370.632 256.157,370.100 255.744 C 368.804 254.736,370.482 254.000,374.076 254.000 L 377.200 254.000 377.200 251.843 C 377.200 250.294,377.031 249.621,376.600 249.455 C 375.798 249.148,375.841 248.411,376.700 247.744 C 377.362 247.230,377.356 247.166,376.600 246.577 C 375.850 245.993,375.844 245.929,376.500 245.557 C 378.200 244.594,377.337 243.600,374.800 243.600 C 373.467 243.600,372.400 243.422,372.400 243.200 C 372.400 242.977,373.473 242.800,374.819 242.800 L 377.238 242.800 377.174 238.467 C 377.123 235.070,376.989 234.133,376.555 234.133 C 376.250 234.133,376.000 234.290,376.000 234.481 C 376.000 234.672,375.614 234.621,375.141 234.369 C 374.668 234.115,373.488 233.999,372.511 234.109 C 370.578 234.327,370.133 233.919,370.539 232.299 C 370.751 231.451,370.947 231.405,373.982 231.480 L 377.200 231.561 377.200 228.957 C 377.200 227.165,377.063 226.438,376.760 226.625 C 376.462 226.809,376.472 226.612,376.790 226.018 C 377.226 225.204,377.199 225.172,376.430 225.584 C 375.877 225.880,375.600 225.890,375.600 225.614 C 375.600 225.384,374.712 225.200,373.600 225.200 L 371.600 225.200 371.600 223.600 C 371.600 222.537,371.422 222.000,371.069 222.000 C 370.707 222.000,370.594 221.619,370.715 220.801 C 370.874 219.714,370.793 219.610,369.845 219.688 C 369.270 219.736,368.800 219.915,368.800 220.087 C 368.800 220.259,367.675 220.371,366.300 220.335 L 363.800 220.270 366.000 220.000 L 368.200 219.730 365.700 219.665 C 364.257 219.628,363.200 219.769,363.200 220.000 C 363.200 220.220,362.525 220.397,361.700 220.394 C 360.584 220.389,360.354 220.288,360.800 220.000 C 361.266 219.699,361.149 219.611,360.276 219.606 C 359.658 219.603,359.236 219.735,359.338 219.900 C 359.440 220.065,359.091 220.226,358.562 220.258 C 358.033 220.289,357.600 220.161,357.600 219.972 C 357.600 219.784,356.797 219.645,355.816 219.665 L 354.031 219.701 354.067 221.495 C 354.088 222.546,353.894 223.419,353.597 223.602 C 353.302 223.784,353.174 224.350,353.290 224.957 L 353.489 226.000 348.931 226.000 L 344.372 226.000 344.596 216.300 C 345.064 196.038,345.215 142.000,344.805 142.000 C 344.582 142.000,344.400 141.561,344.400 141.024 C 344.400 140.487,344.220 139.936,344.000 139.800 C 343.780 139.664,343.600 139.203,343.600 138.776 C 343.600 138.349,343.420 138.000,343.200 138.000 C 342.980 138.000,342.800 137.723,342.800 137.385 C 342.800 136.727,339.383 133.200,338.745 133.200 C 338.242 133.200,336.400 131.347,336.400 130.841 C 336.400 130.623,334.628 128.662,332.462 126.482 C 326.054 120.034,326.341 119.600,337.005 119.600 L 344.400 119.600 344.400 118.400 C 344.400 117.740,344.220 117.200,344.000 117.200 C 343.780 117.200,343.600 116.840,343.600 116.400 C 343.600 115.960,343.420 115.600,343.200 115.600 C 342.980 115.600,342.800 115.060,342.800 114.400 C 342.800 113.740,342.620 113.200,342.400 113.200 C 342.180 113.200,342.000 112.959,342.000 112.664 C 342.000 112.369,340.560 110.652,338.800 108.849 C 337.040 107.046,335.600 105.380,335.600 105.146 C 335.600 104.912,335.060 104.217,334.400 103.600 C 333.740 102.983,333.200 102.267,333.200 102.008 C 333.200 101.749,332.480 100.846,331.600 100.000 C 328.948 97.452,329.237 97.200,334.800 97.200 L 339.600 97.200 339.600 96.088 C 339.600 95.435,339.270 94.739,338.800 94.400 C 338.360 94.083,338.000 93.575,338.000 93.272 C 338.000 92.969,337.460 92.217,336.800 91.600 C 336.140 90.983,335.600 90.263,335.600 90.000 C 335.600 89.737,335.060 89.017,334.400 88.400 C 333.740 87.783,333.200 87.126,333.200 86.940 C 333.199 86.406,331.356 84.400,330.866 84.400 C 330.624 84.400,330.514 84.169,330.622 83.886 C 330.731 83.603,330.455 82.981,330.010 82.503 C 329.564 82.025,329.200 81.428,329.200 81.177 C 329.200 80.926,328.660 80.217,328.000 79.600 C 326.285 77.998,326.279 78.000,332.000 78.000 C 336.933 78.000,337.200 77.959,337.200 77.200 C 337.200 76.760,337.020 76.400,336.800 76.400 C 336.580 76.400,336.400 76.157,336.400 75.859 C 336.400 75.562,335.860 74.754,335.200 74.063 C 334.540 73.372,334.000 72.652,334.000 72.463 C 334.000 72.274,333.460 71.554,332.800 70.863 C 332.140 70.172,331.600 69.336,331.600 69.004 C 331.600 68.672,331.420 68.400,331.200 68.400 C 330.980 68.400,330.800 68.164,330.800 67.875 C 330.800 67.587,330.440 66.964,330.000 66.492 C 329.560 66.020,329.200 65.396,329.200 65.105 C 329.200 64.814,328.840 64.317,328.400 64.000 C 327.960 63.683,327.600 63.143,327.600 62.800 C 327.600 62.457,327.240 61.917,326.800 61.600 C 326.360 61.283,326.000 60.647,326.000 60.187 C 326.000 59.727,325.685 59.002,325.300 58.575 C 324.915 58.149,324.345 57.305,324.032 56.700 C 323.720 56.095,323.315 55.600,323.132 55.600 C 322.950 55.600,322.800 55.312,322.800 54.960 C 322.800 54.609,322.294 53.844,321.675 53.260 C 321.057 52.677,320.433 51.885,320.288 51.500 C 319.711 49.964,315.645 52.398,315.609 54.300 C 315.604 54.575,315.450 54.800,315.268 54.800 C 315.085 54.800,314.681 55.295,314.370 55.900 C 314.060 56.505,313.489 57.291,313.103 57.647 C 312.716 58.003,312.400 58.522,312.400 58.800 C 312.400 59.078,312.019 59.637,311.553 60.041 C 311.063 60.465,310.804 61.035,310.940 61.388 C 311.069 61.725,310.988 62.000,310.759 62.000 C 310.167 62.000,309.200 63.044,309.200 63.683 C 309.200 63.980,308.840 64.483,308.400 64.800 C 307.960 65.117,307.600 65.571,307.600 65.809 C 307.600 66.475,306.637 68.393,306.300 68.397 C 306.135 68.399,306.000 68.678,306.000 69.018 C 306.000 69.358,305.559 70.078,305.019 70.617 C 304.480 71.156,303.724 72.273,303.340 73.099 C 302.955 73.924,302.317 74.891,301.920 75.247 C 301.524 75.603,301.200 76.368,301.200 76.947 L 301.200 78.000 306.000 78.000 C 308.933 78.000,310.800 78.156,310.800 78.400 C 310.800 78.620,310.650 78.800,310.468 78.800 C 310.285 78.800,309.881 79.295,309.570 79.900 C 309.260 80.505,308.668 81.310,308.255 81.688 C 307.840 82.069,307.610 82.649,307.740 82.988 C 307.869 83.325,307.785 83.600,307.553 83.600 C 307.046 83.600,302.800 87.952,302.800 88.472 C 302.800 88.974,301.151 90.580,300.299 90.907 C 299.915 91.054,299.600 91.524,299.600 91.950 C 299.600 92.528,299.397 92.672,298.800 92.516 C 298.126 92.340,298.000 92.504,298.000 93.553 C 298.000 94.239,297.820 94.800,297.600 94.800 C 297.380 94.800,297.200 95.340,297.200 96.000 L 297.200 97.200 302.800 97.200 C 307.903 97.200,309.211 97.452,308.000 98.200 C 307.780 98.336,307.600 98.811,307.600 99.255 C 307.600 99.699,306.880 100.754,306.000 101.600 C 305.120 102.446,304.400 103.382,304.400 103.680 C 304.400 103.979,304.040 104.483,303.600 104.800 C 303.160 105.117,302.799 105.652,302.797 105.988 C 302.794 106.543,301.150 107.600,300.292 107.600 C 299.722 107.600,298.800 106.505,298.800 105.829 C 298.800 105.483,298.620 105.200,298.400 105.200 C 298.180 105.200,298.000 104.784,298.000 104.275 C 298.000 103.767,297.640 102.964,297.200 102.492 C 296.760 102.020,296.400 101.428,296.400 101.177 C 296.400 100.926,295.905 100.244,295.300 99.660 C 294.695 99.077,293.945 98.105,293.632 97.500 C 293.320 96.895,292.915 96.400,292.732 96.400 C 292.550 96.400,292.400 96.040,292.400 95.600 C 292.400 94.978,292.133 94.800,291.200 94.800 L 290.000 94.800 290.000 99.200 C 290.000 101.620,289.902 103.600,289.782 103.600 C 289.363 103.600,287.600 101.633,287.600 101.165 C 287.600 100.906,287.284 100.403,286.897 100.047 C 286.511 99.691,285.940 98.905,285.630 98.300 C 285.319 97.695,284.915 97.200,284.732 97.200 C 284.550 97.200,284.400 96.880,284.400 96.488 C 284.400 96.097,284.040 95.517,283.600 95.200 C 283.160 94.883,282.800 94.343,282.800 94.000 C 282.800 93.657,282.440 93.117,282.000 92.800 C 281.560 92.483,281.200 91.943,281.200 91.600 C 281.200 91.257,280.840 90.717,280.400 90.400 C 279.960 90.083,279.600 89.620,279.600 89.371 C 279.600 89.122,279.060 88.354,278.400 87.663 C 277.740 86.972,277.200 86.136,277.200 85.804 C 277.200 85.472,277.065 85.199,276.900 85.197 C 276.541 85.193,275.600 83.256,275.600 82.520 C 275.600 82.234,275.420 82.000,275.200 82.000 C 274.980 82.000,274.800 81.640,274.800 81.200 C 274.800 80.760,274.620 80.400,274.400 80.400 C 274.180 80.400,274.000 80.164,274.000 79.875 C 274.000 79.587,273.640 78.964,273.200 78.492 C 272.760 78.020,272.400 77.433,272.400 77.188 C 272.400 76.503,271.341 75.601,270.529 75.594 C 270.008 75.589,269.944 75.496,270.306 75.267 C 270.871 74.908,270.075 72.892,269.023 72.019 C 268.329 71.443,266.800 72.261,266.800 73.208 C 266.800 73.546,266.440 74.083,266.000 74.400 C 265.560 74.717,265.200 75.297,265.200 75.688 C 265.200 76.080,265.020 76.400,264.800 76.400 C 264.580 76.400,264.400 76.760,264.400 77.200 C 264.400 77.640,264.220 78.000,264.000 78.000 C 263.780 78.000,263.600 78.320,263.600 78.712 C 263.600 79.103,263.240 79.683,262.800 80.000 C 262.330 80.339,262.000 81.035,262.000 81.688 C 262.000 82.300,261.799 82.800,261.553 82.800 C 261.304 82.800,261.199 83.153,261.316 83.600 C 261.473 84.201,261.328 84.400,260.734 84.400 C 259.866 84.400,258.800 83.519,258.800 82.803 C 258.800 82.553,257.900 81.471,256.800 80.400 C 255.700 79.329,254.800 78.249,254.800 78.000 C 254.800 77.751,253.900 76.671,252.800 75.600 C 251.700 74.529,250.800 73.370,250.800 73.026 C 250.800 72.682,250.641 72.400,250.447 72.400 C 250.252 72.400,249.999 72.040,249.884 71.600 C 249.769 71.160,249.388 70.800,249.037 70.800 C 248.687 70.800,248.400 70.557,248.400 70.259 C 248.400 69.962,247.902 69.197,247.293 68.559 C 246.684 67.922,245.865 66.724,245.473 65.899 C 245.082 65.073,244.320 63.956,243.781 63.417 C 243.241 62.878,242.800 62.230,242.800 61.979 C 242.800 61.727,242.260 61.017,241.600 60.400 C 240.940 59.783,240.400 59.031,240.400 58.728 C 240.400 58.425,240.040 57.917,239.600 57.600 C 239.160 57.283,238.800 56.820,238.800 56.571 C 238.800 56.322,238.260 55.554,237.600 54.863 C 236.940 54.172,236.400 53.447,236.400 53.252 C 236.400 53.056,235.680 52.155,234.800 51.248 C 233.920 50.341,233.200 49.369,233.200 49.088 C 233.200 48.807,232.840 48.317,232.400 48.000 C 231.960 47.683,231.600 47.103,231.600 46.712 C 231.600 46.320,231.420 46.000,231.200 46.000 C 230.980 46.000,230.798 45.775,230.796 45.500 C 230.794 45.225,229.935 44.100,228.888 43.000 C 227.841 41.900,226.664 40.324,226.273 39.499 C 225.881 38.673,225.120 37.556,224.581 37.017 C 224.041 36.478,223.600 35.870,223.600 35.666 C 223.600 35.463,222.880 34.555,222.000 33.648 C 221.120 32.741,220.400 31.729,220.400 31.400 C 220.400 31.070,220.220 30.800,220.000 30.800 C 219.780 30.800,219.600 30.480,219.600 30.088 C 219.600 29.697,219.240 29.117,218.800 28.800 C 218.360 28.483,218.000 28.002,218.000 27.731 C 218.000 27.460,217.100 26.338,216.000 25.238 C 214.900 24.138,214.000 22.999,214.000 22.707 C 214.000 22.415,213.640 21.917,213.200 21.600 C 212.760 21.283,212.399 20.838,212.398 20.612 C 212.397 20.385,211.857 19.625,211.198 18.922 C 210.539 18.219,210.000 17.364,210.000 17.022 C 210.000 16.680,209.820 16.400,209.600 16.400 C 209.380 16.400,209.200 16.106,209.200 15.747 C 209.200 15.388,208.868 14.803,208.463 14.447 C 208.057 14.091,207.640 13.538,207.535 13.217 C 207.258 12.367,204.400 12.239,204.400 13.076 M209.001 28.497 C 209.181 28.333,209.208 28.410,209.060 28.668 C 208.913 28.925,209.064 29.407,209.396 29.739 C 209.728 30.071,210.000 30.553,210.000 30.811 C 210.000 31.068,210.540 31.783,211.200 32.400 C 211.860 33.017,212.400 33.769,212.400 34.072 C 212.400 34.375,212.760 34.883,213.200 35.200 C 213.640 35.517,214.000 35.989,214.000 36.248 C 214.000 36.507,214.855 37.598,215.900 38.672 C 216.945 39.746,218.055 41.114,218.368 41.712 C 218.680 42.311,219.085 42.800,219.268 42.800 C 219.450 42.800,219.600 43.084,219.600 43.431 C 219.600 43.779,220.320 44.754,221.200 45.600 C 222.080 46.446,222.800 47.382,222.800 47.680 C 222.800 47.979,223.160 48.483,223.600 48.800 C 224.040 49.117,224.400 49.697,224.400 50.088 C 224.400 50.480,224.580 50.800,224.800 50.800 C 225.020 50.800,225.200 51.043,225.200 51.341 C 225.200 51.638,225.740 52.446,226.400 53.137 C 227.060 53.828,227.600 54.548,227.600 54.737 C 227.600 54.926,228.095 55.606,228.700 56.248 C 229.305 56.889,230.055 57.906,230.368 58.507 C 230.680 59.108,231.085 59.600,231.268 59.600 C 231.450 59.600,231.600 59.879,231.600 60.219 C 231.600 60.560,232.860 62.081,234.400 63.600 C 235.940 65.119,237.200 66.640,237.200 66.981 C 237.200 67.321,237.380 67.600,237.600 67.600 C 237.820 67.600,238.000 67.960,238.000 68.400 C 238.000 68.840,238.180 69.200,238.400 69.200 C 238.620 69.200,238.800 69.443,238.800 69.741 C 238.800 70.038,239.340 70.846,240.000 71.537 C 240.660 72.228,241.200 72.956,241.200 73.156 C 241.200 73.356,242.100 74.438,243.200 75.561 C 244.300 76.685,245.200 77.833,245.200 78.114 C 245.200 78.394,245.560 78.883,246.000 79.200 C 246.440 79.517,246.800 80.021,246.800 80.320 C 246.800 80.618,247.475 81.524,248.300 82.331 C 249.125 83.139,250.055 84.295,250.368 84.900 C 250.680 85.505,251.085 86.000,251.268 86.000 C 251.450 86.000,251.600 86.282,251.600 86.626 C 251.600 86.970,252.500 88.129,253.600 89.200 C 254.700 90.271,255.600 91.312,255.600 91.512 C 255.600 91.712,255.960 92.202,256.400 92.600 C 256.840 92.998,257.200 93.578,257.200 93.888 C 257.200 94.198,258.100 95.329,259.200 96.400 C 260.300 97.471,261.200 98.554,261.200 98.805 C 261.200 99.057,261.920 99.954,262.800 100.800 C 263.680 101.646,264.400 102.505,264.400 102.709 C 264.400 102.914,264.940 103.646,265.600 104.337 C 266.260 105.028,266.800 105.758,266.800 105.959 C 266.800 106.810,272.097 111.600,273.037 111.600 C 273.567 111.600,274.000 111.780,274.000 112.000 C 274.000 112.220,274.540 112.400,275.200 112.400 C 275.860 112.400,276.400 112.580,276.400 112.800 C 276.400 113.020,276.749 113.200,277.176 113.200 C 277.603 113.200,278.064 113.380,278.200 113.600 C 278.336 113.820,278.887 114.000,279.424 114.000 C 279.961 114.000,280.400 114.180,280.400 114.400 C 280.400 114.620,280.940 114.800,281.600 114.800 C 282.260 114.800,282.800 114.980,282.800 115.200 C 282.800 115.420,283.160 115.600,283.600 115.600 C 284.040 115.600,284.400 115.780,284.400 116.000 C 284.400 116.220,284.749 116.400,285.176 116.400 C 285.603 116.400,286.064 116.580,286.200 116.800 C 286.336 117.020,287.067 117.200,287.824 117.200 C 288.581 117.200,289.200 117.380,289.200 117.600 C 289.200 117.820,289.560 118.000,290.000 118.000 C 290.440 118.000,290.800 118.180,290.800 118.400 C 290.800 118.620,291.340 118.800,292.000 118.800 C 292.660 118.800,293.200 118.980,293.200 119.200 C 293.200 119.420,293.560 119.600,294.000 119.600 C 294.440 119.600,294.800 119.780,294.800 120.000 C 294.800 120.220,295.258 120.400,295.817 120.400 C 296.376 120.400,297.220 120.760,297.692 121.200 C 298.164 121.640,298.841 122.000,299.196 122.000 C 300.030 122.000,301.993 122.911,301.997 123.300 C 301.999 123.465,302.360 123.600,302.800 123.600 C 303.240 123.600,303.600 123.780,303.600 124.000 C 303.600 124.220,303.949 124.400,304.376 124.400 C 304.803 124.400,305.264 124.580,305.400 124.800 C 305.536 125.020,306.267 125.200,307.024 125.200 C 307.781 125.200,308.400 125.380,308.400 125.600 C 308.400 125.820,309.120 126.000,310.000 126.000 C 310.880 126.000,311.600 126.180,311.600 126.400 C 311.600 126.620,311.960 126.800,312.400 126.800 C 312.840 126.800,313.200 126.980,313.200 127.200 C 313.200 127.420,313.549 127.600,313.976 127.600 C 314.403 127.600,314.864 127.780,315.000 128.000 C 315.136 128.220,315.687 128.400,316.224 128.400 C 316.761 128.400,317.200 128.580,317.200 128.800 C 317.200 129.020,317.740 129.200,318.400 129.200 C 319.060 129.200,319.600 129.380,319.600 129.600 C 319.600 129.820,319.883 130.000,320.229 130.000 C 321.846 130.000,322.537 132.058,321.200 132.893 C 320.760 133.168,320.400 133.633,320.400 133.928 C 320.400 134.222,319.680 135.197,318.800 136.095 C 317.920 136.993,317.200 137.885,317.200 138.077 C 317.200 138.578,314.510 141.200,313.995 141.200 C 313.241 141.200,311.518 143.210,311.751 143.818 C 311.874 144.138,311.783 144.400,311.548 144.400 C 310.994 144.400,307.600 147.989,307.600 148.575 C 307.600 148.822,307.240 149.283,306.800 149.600 C 306.360 149.917,306.000 150.497,306.000 150.888 C 306.000 151.280,305.713 151.600,305.363 151.600 C 305.012 151.600,304.631 151.960,304.516 152.400 C 304.401 152.840,304.102 153.200,303.853 153.200 C 303.233 153.200,298.800 157.399,298.800 157.986 C 298.800 158.572,298.023 159.360,297.100 159.710 C 296.715 159.856,296.400 160.251,296.400 160.587 C 296.400 160.924,296.124 161.200,295.787 161.200 C 294.991 161.200,292.400 163.791,292.400 164.587 C 292.400 164.933,292.052 165.200,291.600 165.200 C 291.102 165.200,290.802 165.465,290.806 165.900 C 290.811 166.499,290.869 166.514,291.206 166.000 C 291.556 165.467,291.643 165.467,291.987 166.000 C 292.253 166.412,292.222 166.648,291.887 166.754 C 291.619 166.838,291.140 167.108,290.823 167.354 C 290.383 167.694,290.318 167.681,290.547 167.300 C 290.712 167.025,290.700 166.800,290.520 166.800 C 290.015 166.800,289.143 168.384,289.410 168.816 C 289.540 169.027,289.367 169.200,289.024 169.200 C 288.681 169.200,288.400 169.380,288.400 169.600 C 288.400 169.820,288.165 170.000,287.878 170.000 C 286.976 170.000,284.289 172.735,284.543 173.395 C 284.702 173.810,284.525 174.000,283.977 174.000 C 283.144 174.000,279.600 177.254,279.600 178.018 C 279.600 178.629,278.567 179.600,277.917 179.600 C 277.620 179.600,277.117 179.960,276.800 180.400 C 276.483 180.840,276.104 181.200,275.958 181.200 C 275.813 181.200,275.599 180.840,275.484 180.400 C 275.348 179.880,275.472 179.600,275.837 179.600 C 276.147 179.600,276.400 179.336,276.400 179.013 C 276.400 178.160,278.873 175.600,279.697 175.600 C 280.133 175.600,280.400 175.296,280.400 174.800 C 280.400 174.360,280.550 174.000,280.732 174.000 C 280.915 174.000,281.319 173.505,281.630 172.900 C 281.940 172.295,282.511 171.509,282.897 171.153 C 283.284 170.797,283.600 170.284,283.600 170.014 C 283.600 169.743,284.140 169.017,284.800 168.400 C 285.460 167.783,286.000 166.991,286.000 166.640 C 286.000 166.288,286.276 166.000,286.613 166.000 C 286.949 166.000,287.343 165.685,287.488 165.300 C 287.633 164.915,288.257 164.123,288.875 163.540 C 289.494 162.956,290.000 162.263,290.000 162.000 C 290.000 161.737,290.540 161.017,291.200 160.400 C 291.860 159.783,292.400 159.070,292.400 158.814 C 292.400 158.558,293.300 157.471,294.400 156.400 C 295.500 155.329,296.400 154.170,296.400 153.826 C 296.400 153.467,296.741 153.200,297.200 153.200 C 297.666 153.200,298.000 152.933,298.000 152.560 C 298.000 152.209,298.540 151.417,299.200 150.800 C 299.860 150.183,300.400 149.517,300.400 149.319 C 300.400 148.523,301.432 146.806,301.913 146.803 C 302.194 146.801,302.545 146.485,302.692 146.100 C 302.839 145.715,303.823 144.557,304.879 143.526 C 305.936 142.495,306.800 141.442,306.800 141.186 C 306.800 140.930,307.340 140.217,308.000 139.600 C 308.660 138.983,309.200 138.280,309.200 138.036 C 309.200 137.792,309.740 137.028,310.400 136.337 C 311.984 134.679,312.026 133.200,310.488 133.200 C 309.835 133.200,309.139 132.870,308.800 132.400 C 308.483 131.960,307.914 131.600,307.535 131.600 C 307.157 131.600,306.736 131.420,306.600 131.200 C 306.464 130.980,305.913 130.800,305.376 130.800 C 304.839 130.800,304.400 130.620,304.400 130.400 C 304.400 130.180,304.051 130.000,303.624 130.000 C 303.197 130.000,302.736 129.820,302.600 129.600 C 302.464 129.380,301.913 129.200,301.376 129.200 C 300.839 129.200,300.400 129.020,300.400 128.800 C 300.400 128.580,300.135 128.400,299.812 128.400 C 299.489 128.400,298.583 128.040,297.800 127.600 C 297.017 127.160,296.021 126.800,295.588 126.800 C 295.155 126.800,294.800 126.620,294.800 126.400 C 294.800 126.180,294.260 126.000,293.600 126.000 C 292.940 126.000,292.400 125.820,292.400 125.600 C 292.400 125.380,292.040 125.200,291.600 125.200 C 291.160 125.200,290.800 125.020,290.800 124.800 C 290.800 124.580,290.091 124.400,289.224 124.400 C 288.357 124.400,287.536 124.220,287.400 124.000 C 287.264 123.780,286.713 123.600,286.176 123.600 C 285.639 123.600,285.200 123.420,285.200 123.200 C 285.200 122.980,284.660 122.800,284.000 122.800 C 283.340 122.800,282.800 122.620,282.800 122.400 C 282.800 122.180,282.260 122.000,281.600 122.000 C 280.940 122.000,280.400 121.820,280.400 121.600 C 280.400 121.380,280.040 121.200,279.600 121.200 C 279.160 121.200,278.800 121.020,278.800 120.800 C 278.800 120.580,278.300 120.400,277.688 120.400 C 277.035 120.400,276.339 120.070,276.000 119.600 C 275.683 119.160,275.114 118.800,274.735 118.800 C 274.357 118.800,273.936 118.620,273.800 118.400 C 273.664 118.180,273.113 118.000,272.576 118.000 C 272.039 118.000,271.600 117.820,271.600 117.600 C 271.600 117.380,271.060 117.200,270.400 117.200 C 269.740 117.200,269.200 117.020,269.200 116.800 C 269.200 116.580,268.840 116.400,268.400 116.400 C 267.960 116.400,267.600 116.200,267.600 115.955 C 267.600 115.687,267.120 115.580,266.400 115.685 C 265.581 115.806,265.200 115.693,265.200 115.331 C 265.200 115.008,264.730 114.800,264.000 114.800 C 263.340 114.800,262.800 114.620,262.800 114.400 C 262.800 114.180,262.260 114.000,261.600 114.000 C 260.940 114.000,260.400 113.799,260.400 113.553 C 260.400 113.304,260.047 113.199,259.600 113.316 C 259.080 113.452,258.800 113.328,258.800 112.963 C 258.800 112.653,258.440 112.400,258.000 112.400 C 257.560 112.400,257.200 112.200,257.200 111.955 C 257.200 111.687,256.720 111.580,256.000 111.685 C 255.181 111.806,254.800 111.693,254.800 111.331 C 254.800 111.008,254.330 110.800,253.600 110.800 C 252.940 110.800,252.400 110.620,252.400 110.400 C 252.400 110.180,252.040 110.000,251.600 110.000 C 251.160 110.000,250.800 109.820,250.800 109.600 C 250.800 109.380,250.260 109.200,249.600 109.200 C 248.940 109.200,248.400 109.020,248.400 108.800 C 248.400 108.580,248.040 108.400,247.600 108.400 C 247.160 108.400,246.800 108.220,246.800 108.000 C 246.800 107.780,246.260 107.600,245.600 107.600 C 244.940 107.600,244.400 107.420,244.400 107.200 C 244.400 106.980,243.860 106.800,243.200 106.800 C 242.540 106.800,242.000 106.620,242.000 106.400 C 242.000 106.180,241.651 106.000,241.224 106.000 C 240.797 106.000,240.336 105.820,240.200 105.600 C 240.041 105.343,241.398 105.200,243.982 105.200 C 248.044 105.200,249.126 105.485,250.443 106.900 C 251.575 108.117,253.200 107.823,253.200 106.400 C 253.200 105.740,253.020 105.200,252.800 105.200 C 252.580 105.200,252.400 104.840,252.400 104.400 C 252.400 103.960,252.220 103.600,252.000 103.600 C 251.780 103.600,251.600 103.352,251.600 103.048 C 251.600 102.745,250.880 101.755,250.000 100.848 C 249.120 99.941,248.396 99.064,248.391 98.900 C 248.375 98.402,245.710 95.600,245.252 95.600 C 245.017 95.600,244.916 95.363,245.027 95.074 C 245.138 94.785,244.682 93.977,244.014 93.278 C 243.346 92.579,242.800 91.812,242.800 91.572 C 242.800 91.333,242.080 90.446,241.200 89.600 C 240.320 88.754,239.600 87.914,239.600 87.731 C 239.597 85.905,235.510 84.309,234.912 85.900 C 234.767 86.285,234.143 87.077,233.525 87.660 C 232.906 88.244,232.400 88.969,232.400 89.272 C 232.400 89.575,232.040 90.083,231.600 90.400 C 231.160 90.717,230.800 91.297,230.800 91.688 C 230.800 92.080,230.650 92.400,230.468 92.400 C 230.285 92.400,229.881 92.895,229.570 93.500 C 229.260 94.105,228.689 94.891,228.303 95.247 C 227.916 95.603,227.600 96.188,227.600 96.547 C 227.600 96.906,227.450 97.200,227.268 97.200 C 227.085 97.200,226.681 97.695,226.370 98.300 C 226.060 98.905,225.489 99.691,225.103 100.047 C 224.716 100.403,224.400 100.988,224.400 101.347 C 224.400 101.706,224.250 102.000,224.068 102.000 C 223.885 102.000,223.481 102.495,223.170 103.100 C 222.860 103.705,222.289 104.491,221.903 104.847 C 221.516 105.203,221.200 105.748,221.200 106.059 C 221.200 106.369,220.840 106.883,220.400 107.200 C 219.960 107.517,219.600 108.007,219.600 108.288 C 219.600 108.569,218.880 109.541,218.000 110.448 C 217.120 111.355,216.400 112.345,216.400 112.648 C 216.400 112.952,216.220 113.200,216.000 113.200 C 215.780 113.200,215.600 113.520,215.600 113.912 C 215.600 114.303,215.240 114.883,214.800 115.200 C 214.360 115.517,214.000 116.014,214.000 116.305 C 214.000 116.596,213.640 117.220,213.200 117.692 C 212.760 118.164,212.400 118.787,212.400 119.075 C 212.400 119.364,212.250 119.600,212.068 119.600 C 211.885 119.600,211.480 120.095,211.168 120.700 C 210.855 121.305,210.103 122.340,209.496 123.000 C 208.888 123.660,208.169 124.695,207.898 125.300 C 207.627 125.905,207.179 126.400,206.902 126.400 C 206.223 126.400,206.263 125.738,206.959 125.471 C 207.419 125.294,207.521 123.080,207.537 112.802 C 207.556 100.683,207.803 98.000,208.898 98.000 C 209.064 98.000,209.200 97.722,209.200 97.383 C 209.200 97.044,209.560 96.380,210.000 95.908 C 210.440 95.436,210.800 94.813,210.800 94.525 C 210.800 94.236,210.980 94.000,211.200 94.000 C 211.420 94.000,211.600 93.716,211.600 93.369 C 211.600 93.021,212.320 92.046,213.200 91.200 C 214.080 90.354,214.800 89.461,214.800 89.215 C 214.800 88.968,215.160 88.380,215.600 87.908 C 216.040 87.436,216.400 86.813,216.400 86.525 C 216.400 86.236,216.580 86.000,216.800 86.000 C 217.020 86.000,217.200 85.731,217.200 85.402 C 217.200 85.073,218.100 83.885,219.200 82.761 C 220.300 81.638,221.200 80.467,221.200 80.159 C 221.200 79.852,221.380 79.600,221.600 79.600 C 221.820 79.600,222.000 79.240,222.000 78.800 C 222.000 78.360,222.180 78.000,222.400 78.000 C 222.620 78.000,222.800 77.640,222.800 77.200 C 222.800 76.760,222.620 76.400,222.400 76.400 C 222.180 76.400,222.000 76.112,222.000 75.760 C 222.000 75.409,221.460 74.617,220.800 74.000 C 220.140 73.383,219.600 72.701,219.600 72.483 C 219.600 72.265,218.700 71.182,217.600 70.076 C 216.500 68.971,215.600 67.781,215.600 67.433 C 215.600 66.138,212.551 66.609,211.936 68.000 C 211.644 68.660,211.269 69.200,211.102 69.200 C 210.936 69.200,210.800 69.560,210.800 70.000 C 210.800 70.440,210.620 70.800,210.400 70.800 C 210.180 70.800,210.000 71.072,210.000 71.405 C 210.000 72.114,209.289 73.430,208.300 74.555 C 207.632 75.314,207.600 74.258,207.600 51.626 C 207.600 31.825,207.689 27.976,208.137 28.348 C 208.432 28.593,208.821 28.660,209.001 28.497 M143.600 78.200 C 143.600 78.530,143.308 78.800,142.951 78.800 C 142.420 78.800,142.392 78.691,142.800 78.200 C 143.074 77.870,143.366 77.600,143.449 77.600 C 143.532 77.600,143.600 77.870,143.600 78.200 M108.400 98.000 C 108.400 98.440,108.209 98.800,107.976 98.800 C 107.695 98.800,107.594 100.411,107.676 103.601 C 107.789 107.987,107.738 108.401,107.087 108.401 C 106.262 108.400,103.600 105.881,103.600 105.102 C 103.600 104.813,103.240 104.317,102.800 104.000 C 102.360 103.683,102.000 103.215,102.000 102.960 C 102.000 102.705,101.280 101.755,100.400 100.848 C 99.520 99.941,98.800 99.078,98.800 98.931 C 98.800 98.784,98.502 98.334,98.138 97.931 C 97.500 97.226,97.672 97.200,102.938 97.200 C 108.133 97.200,108.400 97.239,108.400 98.000 M323.407 131.611 C 323.622 131.958,321.984 133.713,321.704 133.436 C 321.523 133.258,322.600 131.206,322.876 131.203 C 323.028 131.201,323.267 131.385,323.407 131.611 M274.000 183.829 C 274.000 183.954,273.721 184.336,273.381 184.676 C 272.600 185.457,272.131 185.066,272.860 184.242 C 273.406 183.624,274.000 183.409,274.000 183.829 M35.500 225.091 C 34.675 225.178,33.325 225.178,32.500 225.091 C 31.675 225.005,32.350 224.934,34.000 224.934 C 35.650 224.934,36.325 225.005,35.500 225.091 M37.200 242.208 C 37.200 242.345,36.943 242.714,36.629 243.029 C 35.973 243.684,34.800 243.794,34.800 243.200 C 34.800 242.980,34.035 242.787,33.100 242.772 C 31.876 242.752,31.620 242.658,32.185 242.437 C 33.164 242.054,37.200 241.870,37.200 242.208 M65.187 252.900 C 65.139 254.804,57.786 255.843,56.124 254.181 C 55.232 253.289,55.386 253.249,60.114 253.140 C 62.471 253.086,64.400 252.897,64.400 252.721 C 64.400 252.544,64.580 252.400,64.800 252.400 C 65.020 252.400,65.194 252.625,65.187 252.900 M354.800 256.000 L 354.800 258.000 349.600 258.000 L 344.400 258.000 344.400 256.000 L 344.400 254.000 349.600 254.000 L 354.800 254.000 354.800 256.000 M63.595 256.689 C 65.170 258.037,63.713 259.599,61.200 259.257 C 60.649 259.182,58.538 259.057,54.700 258.872 C 53.316 258.806,53.200 258.707,53.200 257.600 C 53.200 256.413,54.058 255.923,54.600 256.800 C 55.023 257.485,61.185 257.305,61.455 256.600 C 61.760 255.806,62.605 255.841,63.595 256.689 " stroke="none" fill="#040404" fill-rule="evenodd"></path><path id="path1" d="M322.655 131.800 C 322.782 132.130,322.706 132.400,322.486 132.400 C 322.266 132.400,321.966 132.711,321.821 133.091 C 321.626 133.597,321.825 133.528,322.565 132.832 C 323.513 131.942,323.614 131.200,322.789 131.200 C 322.589 131.200,322.529 131.470,322.655 131.800 M64.795 165.800 C 64.490 170.189,64.573 179.200,64.920 179.200 C 65.121 179.200,65.190 178.952,65.074 178.649 C 64.958 178.346,65.002 177.941,65.173 177.749 C 65.343 177.557,65.360 174.340,65.209 170.600 C 65.058 166.860,64.872 164.700,64.795 165.800 M64.667 207.467 C 64.253 207.880,64.353 209.923,64.800 210.200 C 65.042 210.349,65.200 209.804,65.200 208.824 C 65.200 207.166,65.134 206.999,64.667 207.467 M357.600 219.958 C 357.600 220.154,358.033 220.289,358.562 220.258 C 359.091 220.226,359.440 220.065,359.338 219.900 C 359.077 219.476,357.600 219.525,357.600 219.958 M360.800 220.000 C 360.345 220.294,360.514 220.389,361.500 220.394 C 362.215 220.397,362.800 220.220,362.800 220.000 C 362.800 219.492,361.586 219.492,360.800 220.000 M366.000 220.000 L 363.800 220.270 366.300 220.335 C 367.743 220.372,368.800 220.231,368.800 220.000 C 368.800 219.780,368.665 219.629,368.500 219.665 C 368.335 219.701,367.210 219.852,366.000 220.000 M32.700 225.082 C 33.195 225.178,34.005 225.178,34.500 225.082 C 34.995 224.987,34.590 224.909,33.600 224.909 C 32.610 224.909,32.205 224.987,32.700 225.082 M30.852 227.585 C 30.804 228.655,30.952 229.647,31.182 229.789 C 31.451 229.955,31.600 229.337,31.600 228.047 C 31.600 225.444,30.968 225.053,30.852 227.585 M64.578 226.035 C 64.431 226.274,64.510 226.670,64.755 226.915 C 65.082 227.242,65.200 227.126,65.200 226.480 C 65.200 225.514,64.992 225.365,64.578 226.035 M58.700 227.882 C 59.195 227.978,60.005 227.978,60.500 227.882 C 60.995 227.787,60.590 227.709,59.600 227.709 C 58.610 227.709,58.205 227.787,58.700 227.882 M62.320 228.080 C 62.693 228.453,62.907 228.453,63.280 228.080 C 63.653 227.707,63.547 227.600,62.800 227.600 C 62.053 227.600,61.947 227.707,62.320 228.080 M38.267 231.467 C 37.884 231.849,37.938 232.400,38.357 232.400 C 38.554 232.400,38.818 232.130,38.945 231.800 C 39.179 231.190,38.753 230.981,38.267 231.467 M370.552 232.981 C 370.429 233.300,370.446 233.750,370.588 233.981 C 371.054 234.735,371.600 234.421,371.600 233.400 C 371.600 232.316,370.913 232.041,370.552 232.981 M32.000 233.557 C 32.000 234.122,32.827 234.254,35.300 234.084 C 38.542 233.861,38.168 233.200,34.800 233.200 C 33.260 233.200,32.000 233.361,32.000 233.557 M31.052 235.300 C 30.658 236.769,30.767 240.800,31.200 240.800 C 31.433 240.800,31.600 239.467,31.600 237.600 C 31.600 234.298,31.469 233.746,31.052 235.300 M32.314 242.462 C 31.996 242.664,32.372 242.790,33.300 242.794 C 34.125 242.797,34.800 242.980,34.800 243.200 C 34.800 243.420,35.205 243.594,35.700 243.587 C 36.590 243.575,36.591 243.568,35.800 242.961 C 35.032 242.372,35.045 242.358,36.100 242.617 C 36.823 242.794,37.200 242.728,37.200 242.423 C 37.200 241.893,33.159 241.926,32.314 242.462 M31.052 245.700 C 30.663 247.153,30.765 250.400,31.200 250.400 C 31.429 250.400,31.600 249.200,31.600 247.600 C 31.600 244.677,31.458 244.185,31.052 245.700 M376.400 245.613 C 375.867 245.957,375.867 246.043,376.400 246.387 C 376.787 246.637,377.047 246.637,377.133 246.387 C 377.398 245.620,377.015 245.216,376.400 245.613 M38.000 256.167 C 38.000 257.654,38.754 258.210,38.860 256.800 C 38.893 256.360,38.938 255.790,38.960 255.533 C 38.982 255.277,38.775 254.992,38.500 254.900 C 38.162 254.787,38.000 255.198,38.000 256.167 M38.000 259.813 C 38.000 260.937,38.830 261.447,39.900 260.981 C 40.567 260.691,40.567 260.668,39.900 260.509 C 39.515 260.417,39.200 259.995,39.200 259.571 C 39.200 259.147,38.930 258.800,38.600 258.800 C 38.225 258.800,38.000 259.179,38.000 259.813 M64.700 267.029 C 64.535 267.196,64.411 268.338,64.425 269.567 C 64.447 271.446,64.513 271.644,64.844 270.814 C 65.286 269.708,65.166 266.557,64.700 267.029 " stroke="none" fill="#0c0707" fill-rule="evenodd"></path><path id="path2" d="" stroke="none" fill="#14040c" fill-rule="evenodd"></path><path id="path3" d="" stroke="none" fill="#040414" fill-rule="evenodd"></path><path id="path4" d="M206.900 125.465 C 206.204 125.746,206.273 126.400,207.000 126.400 C 207.330 126.400,207.600 126.130,207.600 125.800 C 207.600 125.470,207.555 125.214,207.500 125.232 C 207.445 125.249,207.175 125.354,206.900 125.465 M42.800 219.758 C 42.800 219.845,43.520 219.985,44.400 220.069 C 45.280 220.152,46.000 220.081,46.000 219.911 C 46.000 219.740,45.280 219.600,44.400 219.600 C 43.520 219.600,42.800 219.671,42.800 219.758 M376.430 247.981 C 376.129 248.167,375.994 248.607,376.129 248.960 C 376.398 249.661,377.200 249.841,377.200 249.200 C 377.200 248.980,376.975 248.797,376.700 248.794 C 376.361 248.790,376.390 248.668,376.788 248.416 C 377.112 248.211,377.287 247.953,377.177 247.843 C 377.067 247.733,376.731 247.796,376.430 247.981 M369.867 254.667 C 369.406 255.127,369.575 255.600,370.200 255.600 C 370.530 255.600,370.800 255.330,370.800 255.000 C 370.800 254.375,370.327 254.206,369.867 254.667 M61.455 256.600 C 61.289 257.033,61.499 257.200,62.213 257.200 C 62.824 257.200,63.200 256.971,63.200 256.600 C 63.200 256.270,62.859 256.000,62.443 256.000 C 62.026 256.000,61.582 256.270,61.455 256.600 M38.000 258.200 C 38.000 258.530,38.264 258.800,38.587 258.800 C 38.945 258.800,39.085 258.565,38.945 258.200 C 38.818 257.870,38.554 257.600,38.357 257.600 C 38.161 257.600,38.000 257.870,38.000 258.200 M60.566 259.217 C 61.253 259.423,61.992 259.414,62.366 259.195 C 62.819 258.930,62.488 258.831,61.200 258.847 C 59.538 258.867,59.490 258.896,60.566 259.217 " stroke="none" fill="#04040c" fill-rule="evenodd"></path></g></svg>