<?xml version="1.0" encoding="UTF-8"?><svg xmlns="http://www.w3.org/2000/svg" width="169" height="47" viewBox="0 0 169 47"><g fill="#1F1C19" fill-rule="evenodd" opacity=".8"><path d="M23.4 45a21.4 21.4 0 1 1 0-42.9 21.4 21.4 0 0 1 0 42.8m0-44.8a23.4 23.4 0 1 0 0 47 23.4 23.4 0 0 0 0-47"/><path d="M25.3 40.5l-.8-.5a21 21 0 0 0 7.6-21.6c2-1 4-1.5 6.3-1.7a20.4 20.4 0 0 1-13.1 23.8m-3.7 0A20.4 20.4 0 0 1 8.5 16.7c2.1.2 4.2.8 6.2 1.7-2 7.6.6 16 7.5 21.5v.1l-.6.5m-5-21.1c2.3 1.3 4.4 3 6 5a21 21 0 0 0-1.8 3.6c-.3.7-1.6 4.8.2 9l-.3-.3c-4.3-5-5.6-11.5-4-17.3M23.4 8c2.9 2.5 5 6.3 6.1 9.5a22 22 0 0 0-6.1 5.7 22 22 0 0 0-6.2-5.7c1.2-3.2 3.3-7 6.2-9.5m0 31.2h-.1C19.8 33.5 22 28 22 28c.4-1 .9-1.7 1.3-2.4.5.8.9 1.5 1.2 2.3 0 0 2.3 5.6-1.1 11.4h-.1m2.6-2.6c0 .2-.2.3-.3.4 1.8-4.1.6-8.2.2-9.1 0 0-.5-1.6-1.7-3.5 1.6-2 3.6-3.8 5.9-5.1 1.5 5.8.2 12.3-4 17.3m14.4-21c0-.5-.2-1-.4-1.4l-1.4.2c-2.5.2-5 1-7.2 2A23.7 23.7 0 0 0 25 6.5l-1.5-1.1-1.5 1a23.7 23.7 0 0 0-6.7 10.2 23.7 23.7 0 0 0-8.5-2.2l-.4 1.4A21.6 21.6 0 0 0 22 41.8c.2 0 1.4-1 1.4-1s1.2 1 1.5 1l1.7-.5a21.7 21.7 0 0 0 14-25.6"/><g><path d="M67.4 13.9v5c0 .5 0 1.1-.3 1.5h1.5c-.2-.4-.2-1-.2-1.5v-5h1.2c.5 0 1.2-.1 1.3-.6h-5.6l-.2.8c.2-.2.5-.2.8-.2h1.5zM77.7 20.4h1.5a3 3 0 0 1-.3-1.5v-4.1c0-.5 0-1 .3-1.5h-1.5c.2.4.2 1 .2 1.5v1.5h-3.3v-1.5c0-.5 0-1 .3-1.5h-1.6c.3.4.3 1 .3 1.5v4.1c0 .5 0 1-.3 1.5H75c-.3-.4-.3-1-.3-1.5v-2.1h3.3v2.1c0 .5 0 1-.2 1.5M83.4 20v-3h.3c.7 0 2 0 2.3-.7l-2.6.1v-2.7h1c.7 0 1.3.1 1.7.5v-1h-4c.3.5.3 1 .3 1.6v4.1c0 .5 0 1.1-.3 1.5H86.4l.2-1a3 3 0 0 1-2 .6h-1.2zM95.9 20c-.8 0-.8-.3-.8-1.6v-1.7h.2c1.3 0 2.4.1 2.4 1.7 0 1.2-.7 1.6-1.8 1.6zm-.8-6.3h.7c1 0 1.6 0 1.6 1 0 1.3-1 1.6-2 1.6h-.3v-2.6zm3.8 4.5c0-1.2-1-1.6-2-1.9.8-.3 1.6-.8 1.6-1.8s-.8-1.3-1.7-1.3h-3c.3.5.3 1 .3 1.6v2.8c0 .9 0 2-.4 2.8H96c1.5 0 2.9-.5 2.9-2.2zM103 20v-3h.3c.7 0 2 0 2.4-.7l-2.7.1v-2.7h1c.8 0 1.4.1 1.8.5v-1h-4c.2.5.2 1 .2 1.6v4.1c0 .5 0 1.1-.3 1.5h4.3l.3-1a3 3 0 0 1-2 .6H103zM108.9 20.4h3.8l.2-1c-.5.5-1.1.6-1.8.6h-.8v-5.2c0-.5 0-1.1.2-1.5H109c.3.4.3 1 .3 1.5v3c0 .6 0 2.2-.4 2.6M117.4 20h-.9v-5.2c0-.5 0-1.1.3-1.5h-1.5c.2.4.2 1 .2 1.5v3c0 .6 0 2.2-.3 2.6h3.8l.2-1c-.6.5-1.2.6-1.8.6M121.6 20.4h4.3l.2-1a3 3 0 0 1-1.9.6h-1.3v-3h.3c.7 0 2 0 2.4-.7l-2.7.1v-2.7h1c.7 0 1.3.1 1.7.5v-1h-4c.3.5.3 1 .3 1.6v4.1c0 .5 0 1.1-.3 1.5M133.2 13.7c0 1-1.4 4.2-1.7 5.2 0 .2-.2.3-.2.3l-.2-.3-1.7-5.2c0-.1-.1-.4-.4-.4h-1l.2.4c.8 1.7 1.6 4.4 2.1 6.2l.2.5h.9l.2-.6c.8-2 1.6-4.3 2.7-6.1l.2-.4h-1.4v.4M141 19.8l.2-.1v.8l1.4-.1c-.3-.4-.3-1-.3-1.5v-4.1c0-.5 0-1.1.3-1.5H141c.2.4.2 1 .2 1.5v3c0 1.3-.5 2.1-1.8 2.1s-1.8-.7-1.8-1.9v-3.2c0-.5 0-1.1.3-1.5h-1.5c.2.4.2 1 .2 1.5v3.9c0 1.4.9 1.9 2.2 1.9 1 0 1.7-.4 2.2-.8M146.7 20v-3h.3c.7 0 2 0 2.4-.7l-2.7.1v-2.7h1c.7 0 1.3.1 1.7.5v-1h-4c.3.5.3 1 .3 1.6v4.1c0 .5 0 1.1-.3 1.5h4.3l.3-1a3 3 0 0 1-2 .6h-1.3zM55.8 31.3c0-2.3 1-4.4 3.6-4.4 1.7 0 2.2.8 2.6 1.5l.2-2-2.8-.2c-3.3 0-5.3 2.2-5.3 5.6 0 3 1.8 5.3 4.8 5.3 2.6 0 3.7-1.5 3.7-2.3-.4.4-1.4 1-2.8 1-2.7 0-4-2-4-4.5M70.2 36.4c-2.7 0-3.4-2.9-3.4-5 0-2.4 1-4.5 3.4-4.5 2.6 0 3.3 2.8 3.3 5 0 2.3-1 4.5-3.3 4.5m0-10.2c-3.3 0-5.2 2.6-5.2 5.6 0 3 1.6 5.3 5 5.3s5.3-2.6 5.3-5.7c0-2.9-1.6-5.2-5-5.2M81 36.2v-7.6c0-.8 0-1.6.3-2.2h-2.2c.4.6.4 1.4.4 2.2V33c0 .8 0 3-.6 3.7h5.6l.3-1.6c-.8.8-1.7 1-2.6 1H81zM90.5 36.2v-7.6c0-.8 0-1.6.3-2.2h-2.2c.4.6.4 1.4.4 2.2V33c0 .8-.1 3-.6 3.7H94l.3-1.6c-.8.8-1.7 1-2.6 1h-1.2zM99.7 36.2v-4.4h.5c1 0 2.8 0 3.4-1-1.3.2-2.6.2-3.9.2v-4h1.6c1 0 1.8.2 2.4.7v-1.3h-5.8c.4.6.4 1.4.4 2.2v6c0 .8 0 1.7-.5 2.2h6.4l.3-1.6c-.8.7-1.8 1-2.9 1h-1.9zM113.5 35.8c-2.7 0-4-2-4-4.5 0-2.3 1-4.4 3.6-4.4 1.7 0 2.2.8 2.6 1.5l.2-2-2.8-.2c-3.3 0-5.3 2.2-5.3 5.6 0 3 1.8 5.3 4.8 5.3 2.6 0 3.8-1.5 3.8-2.3-.5.4-1.5 1-2.9 1M119 27.6c.5-.3.8-.3 1.2-.3h2.2v7.4c0 .7 0 1.6-.4 2.1h2.2c-.3-.5-.3-1.4-.3-2.1v-7.4h1.8c.7 0 1.7-.2 2-.9h-8.3l-.4 1.2zM133.5 26.4h-2.2c.3.6.3 1.4.3 2.2v6c0 .8 0 1.7-.3 2.2h2.2c-.4-.5-.4-1.4-.4-2.1v-6.1c0-.8 0-1.6.4-2.2M142.6 36.4c-2.6 0-3.4-2.9-3.4-5 0-2.4 1-4.5 3.4-4.5 2.7 0 3.4 2.8 3.4 5 0 2.3-1 4.5-3.4 4.5m.1-10.2c-3.4 0-5.2 2.6-5.2 5.6 0 3 1.5 5.3 5 5.3 3.4 0 5.2-2.6 5.2-5.7 0-2.9-1.5-5.2-5-5.2M160.2 28.9c0-.9.1-1.7.5-2.5H159c.2.5.4 1 .4 2.1v5.8l-.1.3-.4-.4-3.2-4.6-2-2.9c-.1-.3-.3-.3-.6-.3h-1.7c.5.5.6 1.4.6 2.2v3.5c0 1.4 0 3.4-.6 4.7h1.9c-.6-1.2-.5-2.8-.5-4.1v-4.2-.3l.3.2 6 8.5h1.2v-8zM166.2 26.7h-.8v2h-.3v-2h-.7v-.2h1.8zM168.9 28.6h-.4V27l-.6.9h-.1l-.7-.9v1.7h-.3v-2.1h.3l.7.8.8-.8h.3z"/></g></g></svg>